<svg width="201" height="142" viewBox="0 0 201 142" fill="none" xmlns="http://www.w3.org/2000/svg">
  <path
    d="M135.01 61.1769C128.526 63.4653 119.916 61.6293 110.026 61.1222C110.026 61.1222 87.7475 58.7668 77.611 63.068C77.339 57.0964 77.9195 51.6015 72.7988 46.9769C63.9584 38.9918 58.0464 35.3335 57.7686 35.1622H56.2104C55.829 35.8078 55.507 36.6295 55.3106 37.7011C54.762 40.7058 55.2691 43.3124 58.578 46.3562C57.7953 49.17 56.0482 57.9284 66.5735 63.469C79.1632 70.0991 98.8788 77.596 123.315 77.2813C129.289 77.0839 134.629 72.3704 135.612 67.2304C135.465 67.1346 135.278 67.0304 135.072 66.9231C136.867 65.958 138.136 64.7615 139.171 63.4702C140.73 61.528 141.637 59.5749 142.056 57.868C140.457 58.8526 138.124 60.0779 135.01 61.1769Z"
    fill="#E4D9C0" />
  <path
    d="M63.1148 37.7197C70.063 42.5757 81.5917 51.0906 102.674 56.9793C130.903 64.8664 138.992 53.3242 138.992 53.3242L139.623 51.6922C137.107 49.9537 132.476 47.1215 131.501 49.101C130.149 51.8453 127.467 53.595 124.564 51.2979C121.674 49.0108 122.718 47.9099 120.097 51.8308C117.48 55.7493 115.267 56.9013 113.062 52.1637C110.87 47.4502 111.542 45.4166 107.875 49.6046C104.214 53.7839 102.408 53.1477 100.816 48.9108C99.2312 44.6924 97.2097 42.4186 94.4861 46.2079C91.7648 49.9935 88.4766 49.44 86.7576 44.7899C85.047 40.1582 86.9599 39.1084 81.9794 42.2089C77.0172 45.2995 77.0075 43.1806 75.7043 36.8457C74.4095 30.5424 70.6615 33.0197 66.759 35.0315C62.8686 37.0359 63.2599 35.6997 62.6064 31.8018C62.4199 30.6888 62.0126 30.0926 61.4312 29.7931C60.7117 31.5237 59.3683 35.1013 63.1148 37.7197Z"
    fill="#E4D9C0" />
  <path
    d="M105.249 45.0995C125.422 49.7202 139.638 46.0175 141.933 35.0095C141.933 35.0095 137.163 5.54383 105.913 0.496189C83.7987 -2.0969 66.9297 12.4835 64.0403 25.0924C67.5576 28.9524 85.5932 40.5957 105.249 45.0995ZM125.334 32.0295C125.08 32.5489 124.281 32.7404 123.552 32.4562C122.822 32.1735 122.438 31.5198 122.689 31.0029C122.943 30.4837 123.74 30.2909 124.469 30.5737C125.2 30.8568 125.588 31.5089 125.334 32.0295ZM122.008 22.7722C122.261 22.2529 123.054 22.0589 123.782 22.3357C124.513 22.6147 124.897 23.2609 124.643 23.7804C124.391 24.2986 123.596 24.4924 122.867 24.212C122.14 23.9353 121.755 23.2891 122.008 22.7722ZM118.836 16.8067C119.087 16.2909 119.88 16.0947 120.603 16.3666C121.327 16.6409 121.71 17.2822 121.459 17.7991C121.204 18.3173 120.414 18.5137 119.689 18.238C118.965 17.9626 118.585 17.3211 118.836 16.8067ZM116.607 27.1564C116.861 26.6395 117.651 26.4457 118.375 26.726C119.1 27.0064 119.482 27.6549 119.23 28.172C118.977 28.6902 118.185 28.8817 117.461 28.6011C116.737 28.3208 116.356 27.6722 116.607 27.1564ZM114.496 32.0624C114.244 32.5782 113.454 32.7682 112.735 32.4878C112.015 32.2038 111.635 31.5589 111.888 31.0418C112.138 30.526 112.928 30.3348 113.647 30.6177C114.369 30.8982 114.749 31.5444 114.496 32.0624ZM111.722 20.7288C111.972 20.2153 112.757 20.0204 113.475 20.2946C114.193 20.5713 114.574 21.2128 114.323 21.7271C114.071 22.2429 113.284 22.4366 112.566 22.16C111.849 21.8835 111.471 21.2433 111.722 20.7288ZM107.071 12.5529C107.322 12.0395 108.101 11.8446 108.812 12.114C109.525 12.3835 109.899 13.0175 109.651 13.5307C109.399 14.044 108.618 14.2402 107.907 13.9684C107.198 13.6989 106.822 13.0637 107.071 12.5529ZM104.576 22.4989C104.827 21.9857 105.607 21.7931 106.319 22.0673C107.032 22.3428 107.405 22.9829 107.154 23.4975C106.905 24.0095 106.122 24.2009 105.41 23.9266C104.699 23.6487 104.327 23.0111 104.576 22.4989ZM97.6414 27.0442C97.3927 27.5551 96.6185 27.7453 95.915 27.4684C95.2129 27.1929 94.8434 26.554 95.0932 26.0457C95.3419 25.5335 96.1149 25.3446 96.817 25.6189C97.5219 25.8958 97.8914 26.5335 97.6414 27.0442ZM96.9087 18.3793C96.6587 18.8889 95.8881 19.0815 95.187 18.8109C94.4859 18.5404 94.1203 17.9064 94.369 17.3967C94.6165 16.8897 95.3858 16.6946 96.0881 16.9677C96.7903 17.2382 97.1561 17.8697 96.9087 18.3793ZM95.4114 9.46328C96.155 9.57547 96.7149 10.0986 96.6587 10.63C96.6038 11.1617 95.9552 11.5006 95.2101 11.386C94.4678 11.2715 93.9105 10.7495 93.9665 10.2193C94.0216 9.68892 94.6701 9.35237 95.4114 9.46328ZM84.6532 12.5053C84.8996 12.0017 85.659 11.8078 86.3516 12.0737C87.0428 12.3395 87.4049 12.966 87.1561 13.4707C86.9123 13.978 86.149 14.1718 85.4578 13.9024C84.7667 13.6367 84.407 13.01 84.6532 12.5053ZM81.2797 19.69C81.5261 19.1855 82.2856 18.9938 82.9745 19.2646C83.6647 19.5329 84.0254 20.162 83.7803 20.6691C83.5316 21.1738 82.7708 21.3653 82.0821 21.0946C81.3918 20.824 81.0347 20.1937 81.2797 19.69Z"
    fill="#E4D9C0" />
  <path
    d="M50.963 69.3128C49.901 68.2953 48.9001 67.2281 47.9844 66.0964C11.2449 71.5244 11.2449 71.5244 11.2449 71.5244V75.7539L50.963 69.3128Z"
    fill="#E4D9C0" />
  <path
    d="M55.1388 72.813L11.2451 80.2441V82.2521L56.2726 74.9503L61.0946 78.3032L11.2451 86.7425V100.749L103.511 87.8055C103.51 87.8055 73.3804 86.2152 55.1388 72.813Z"
    fill="#E4D9C0" />
  <path
    d="M153.454 64.3615L155.341 59.5408L188.111 54.1775V51.1564L154.909 56.7775C149.867 74.2113 140.25 79.8733 140.25 79.8733L188.111 72.3826V58.4166L153.454 64.3615Z"
    fill="#E4D9C0" />
  <path
    d="M188.111 46.9368V42.1684C182.012 43.1268 162.226 46.2553 156.949 47.3111C156.699 48.9984 156.404 50.5999 156.075 52.1319L188.111 46.9368Z"
    fill="#E4D9C0" />
  <path
    d="M196.694 95.8548L194.631 93.9504C197.935 90.6221 199.857 86.1232 199.857 81.1977C199.857 71.8317 193.551 65.5382 184.165 65.5382C183.034 65.5382 181.856 65.6308 180.664 65.8173L170.334 67.4255C168.235 67.7522 166.372 68.6593 164.88 69.959C163.663 69.381 162.278 69.0542 160.767 69.0542C160.174 69.0542 159.559 69.1042 158.945 69.2006L145.807 71.2439C142.127 71.817 139.154 74.1553 137.686 77.3179C134.815 75.1502 130.679 73.9017 125.71 73.9017C124.109 73.9017 122.476 74.0286 120.857 74.2821C113.508 75.4257 107.268 79.4612 103.084 85.177C100.321 81.9388 96.1198 80.0441 90.9845 80.0441C89.8543 80.0441 88.6767 80.1392 87.4828 80.3244L77.1563 81.9339C74.8946 82.285 72.9025 83.3043 71.359 84.7697C69.9703 83.9066 68.3012 83.4188 66.4299 83.4188C65.8666 83.4188 65.2863 83.4628 64.7046 83.553C59.2512 84.4039 55.5863 88.7663 55.5863 94.4135V112.741C55.5863 115.313 53.5161 115.91 52.6274 116.05C52.1677 116.123 51.7483 116.091 51.5874 116.05C51.5386 115.91 51.4752 115.623 51.4752 115.16V96.8301C51.4752 91.1437 47.7126 87.1715 42.3263 87.1715C41.763 87.1715 41.1826 87.2179 40.6024 87.3081C36.5753 87.9346 33.5297 90.4804 32.207 94.0381C29.7684 91.8972 26.4841 90.6535 22.6581 90.6535C21.6582 90.6535 20.6208 90.7364 19.5711 90.8997L9.45168 92.475C4.16768 93.2968 0.333313 97.7543 0.333313 103.07V132.204C0.333313 137.554 4.31513 141.589 9.5955 141.589C10.1297 141.589 10.672 141.545 11.2073 141.462L21.8559 139.804C29.4052 138.629 34.1759 135.042 36.8899 130.785C40.2732 134.135 44.8988 135.913 50.2926 135.913C51.6179 135.913 52.9943 135.803 54.3819 135.586C60.6875 134.606 65.9594 131.707 69.6706 127.508C71.2677 129.914 73.9256 131.378 77.1857 131.378C77.7477 131.378 78.327 131.331 78.9121 131.241C83.2379 130.563 86.437 127.678 87.5745 123.697L88.7583 125.006C89.6972 126.03 91.8941 128.437 95.9832 128.437C96.605 128.437 97.2416 128.386 97.9254 128.278C102.379 127.586 105.112 124.623 106.356 121.646C109.722 124.014 113.849 125.301 118.38 125.301C119.75 125.301 121.174 125.189 122.613 124.965C128.98 123.975 134.394 120.851 138.263 116.342C139.898 118.803 142.674 120.358 145.953 120.358C146.485 120.358 147.026 120.317 147.563 120.234L161.02 118.137C163.036 117.822 164.805 117.059 166.237 115.955C167.453 116.54 168.84 116.867 170.365 116.867C170.929 116.867 171.508 116.823 172.089 116.732C176.416 116.057 179.618 113.172 180.757 109.19L181.942 110.5C182.881 111.526 185.077 113.931 189.168 113.928C189.786 113.928 190.42 113.879 191.11 113.77C197.472 112.78 200.333 107.154 200.333 103.475C200.333 99.2514 197.708 96.8008 196.694 95.8548Z"
    fill="#EA5B0C" />
  <path
    d="M6.0379 103.07C6.0379 100.317 8.10445 98.4588 10.3295 98.1101L20.449 96.5373C26.9643 95.5204 31.0437 98.9123 31.0437 104.738C31.0437 108.602 28.3421 111.302 26.5401 112.643C31.1512 112.826 34.1163 116.018 34.1163 120.734C34.1163 126.717 30.249 132.723 20.9781 134.167L10.3295 135.825C8.10445 136.171 6.0379 134.959 6.0379 132.204V103.07V103.07ZM14.6212 112.168L18.5421 111.558C20.9781 111.178 22.4606 109.729 22.4606 107.398C22.4606 105.069 21.0317 104.072 18.5421 104.46L14.6212 105.069V112.168ZM14.6212 127.53L20.0246 126.688C22.885 126.242 25.2172 124.874 25.2172 122.014C25.2172 119.153 22.5679 118.558 20.0246 118.954L14.6212 119.795V127.53Z"
    fill="#E4D9C0" />
  <path
    d="M45.7692 115.16C45.7692 120.19 49.2659 122.348 53.505 121.687C57.7418 121.029 61.2921 117.776 61.2921 112.741V94.4137C61.2921 91.395 63.0941 89.5782 65.5827 89.1906C68.0734 88.8028 69.8754 90.0586 69.8754 93.0775V111.405C69.8754 121.363 63.0407 128.466 53.5052 129.949C43.9687 131.434 37.1863 126.452 37.1863 116.496V98.1662C37.1863 95.1475 38.9896 93.331 41.479 92.9457C43.9686 92.558 45.7694 93.8113 45.7694 96.8301V115.16H45.7692Z"
    fill="#E4D9C0" />
  <path
    d="M73.7402 92.5288C73.7402 89.7759 75.8054 87.9179 78.0318 87.5715L88.3622 85.9622C95.9907 84.7748 100.97 88.6589 100.97 95.7037C100.97 101.266 97.5804 105.821 92.1769 107.669L99.6456 114.555C100.811 115.647 101.448 116.552 101.448 117.983C101.448 119.203 100.335 122.129 97.05 122.641C94.8251 122.987 94.0302 122.316 92.9718 121.156L82.4282 109.505L82.3222 109.522V120.378C82.3222 123.397 80.5215 125.213 78.0316 125.604C75.542 125.989 73.74 124.736 73.74 121.717V92.5288H73.7402ZM82.3222 103.165L87.9915 102.282C90.7993 101.844 92.3891 99.744 92.3891 97.3593C92.3891 94.8184 90.4286 93.5871 87.9915 93.9649L82.3222 94.8477V103.165V103.165Z"
    fill="#E4D9C0" />
  <path
    d="M134.344 94.165C137.312 93.7017 138.902 95.1501 138.902 98.6979C138.902 108.815 132.225 117.693 121.735 119.327C109.869 121.173 103.194 113.316 103.194 102.509C103.194 91.068 111.087 81.5779 121.735 79.9197C128.833 78.8126 136.358 80.6073 136.358 85.9059C136.358 88.025 134.873 89.7366 132.49 90.1097C129.365 90.595 127.881 86.908 122.106 87.8053C116.119 88.7393 112.412 94.5061 112.412 101.075C112.412 106.9 115.271 112.389 121.947 111.348C126.451 110.648 129.577 107.249 130 102.784L125.073 103.552C122.372 103.972 120.782 102.631 120.782 100.248C120.782 97.7588 122.371 96.0277 125.073 95.6081L134.344 94.165Z"
    fill="#E4D9C0" />
  <path
    d="M142.393 81.8413C142.393 79.0859 144.459 77.2279 146.685 76.8815L159.823 74.8382C162.525 74.4164 164.115 75.7575 164.115 78.1423C164.115 80.6319 162.525 82.3606 159.823 82.7824L150.977 84.1577V90.9926L159.082 89.7293C161.783 89.3099 163.373 90.5974 163.373 93.0334C163.373 95.4694 161.783 97.2543 159.082 97.6737L150.977 98.9368V105.981L160.141 104.555C162.842 104.133 164.432 105.369 164.432 107.859C164.432 110.244 162.842 112.08 160.141 112.499L146.685 114.596C144.459 114.94 142.393 113.728 142.393 110.973V81.8413H142.393Z"
    fill="#E4D9C0" />
  <path
    d="M166.921 78.0228C166.921 75.2675 168.988 73.4093 171.213 73.0629L181.543 71.4548C189.172 70.2673 194.151 74.1529 194.151 81.1975C194.151 86.7593 190.762 91.3119 185.358 93.1602L192.827 100.049C193.992 101.139 194.629 102.046 194.629 103.475C194.629 104.694 193.517 107.622 190.232 108.132C188.006 108.478 187.211 107.808 186.153 106.65L175.609 94.9964L175.505 95.0135V105.872C175.505 108.89 173.703 110.707 171.213 111.095C168.722 111.483 166.921 110.227 166.921 107.208V78.0228ZM175.504 88.6566L181.171 87.7739C183.98 87.3373 185.569 85.2355 185.569 82.8508C185.569 80.3099 183.609 79.0786 181.171 79.4564L175.504 80.3391V88.6566V88.6566Z"
    fill="#E4D9C0" />
</svg>